<svg xmlns="http://www.w3.org/2000/svg" viewBox="0 0 139 43"><path d="M16.86.88l-5.97.88L0,21.08l10.89,19.32,5.97.88L5.27,21.08,16.86.88ZM32.16.88l5.97.88,10.89,19.32-10.89,19.31-5.97.88,11.59-20.2L32.16.88Z"/><path d="M16.86.88l7.65-.88v21.08H5.27L16.86.88Z" fill="#f3f3f3"/><path d="M16.86,41.27l7.65.88v-21.07H5.27l11.59,20.19Z" fill="#d9d9d9"/><path d="M32.16,41.27l-7.65.88v-21.07h19.24l-11.59,20.19Z" fill="#bcbcbc"/><path d="M32.16.88l-7.65-.88v21.08h19.24L32.16.88Z" fill="#e9e9e9"/><path d="M137.6,31.74v4.38c.03.34.08.57.17.71.08.13.26.23.53.28l-.08,2.13c-.72,0-1.29-.05-1.72-.15s-.86-.3-1.3-.59c-1.01.49-2.04.74-3.1.74-2.18,0-3.27-1.15-3.27-3.46,0-1.12.3-1.92.91-2.39.6-.47,1.53-.75,2.78-.83l2.25-.17v-.65c0-.44-.1-.73-.29-.9-.2-.16-.51-.24-.95-.24l-3.96.17-.08-1.96c1.5-.41,2.93-.61,4.29-.61s2.33.28,2.93.84c.59.56.89,1.46.89,2.7ZM73.34,29.64c.74-.96,1.99-1.44,3.73-1.44s2.99.48,3.73,1.44c.74.96,1.12,2.32,1.12,4.06,0,3.7-1.62,5.54-4.85,5.54s-4.85-1.85-4.85-5.54c.01-1.74.38-3.09,1.12-4.06ZM109.74,31.74v4.38c.03.34.08.57.17.71.08.13.26.23.53.28l-.08,2.13c-.72,0-1.29-.05-1.72-.15s-.86-.3-1.3-.59c-1.01.49-2.04.74-3.1.74-2.18,0-3.27-1.15-3.27-3.46,0-1.12.3-1.92.91-2.39.6-.47,1.53-.75,2.78-.83l2.25-.17v-.65c0-.44-.1-.73-.3-.9-.2-.16-.51-.24-.95-.24l-3.96.17-.08-1.96c1.5-.41,2.93-.61,4.29-.61s2.33.28,2.93.84c.6.56.9,1.46.9,2.7ZM86.81,38.99h-2.82v-10.54h2.8v.59c.97-.56,1.8-.84,2.49-.84,1.14,0,2.02.33,2.63.99,1.29-.66,2.47-.99,3.54-.99,1.39,0,2.36.4,2.9,1.21s.81,2.1.81,3.87v5.71h-2.82v-5.63c0-.9-.1-1.56-.29-1.99-.2-.43-.59-.64-1.18-.64-.45,0-1,.1-1.64.29l-.32.11c.06,1.05.08,1.85.08,2.4v5.46h-2.82v-5.42c0-1.04-.09-1.77-.27-2.2-.18-.43-.58-.64-1.2-.64-.55,0-1.09.1-1.62.29l-.25.09v7.88h-.02ZM115.26,38.99h-2.82v-10.54h2.8v.59c.96-.56,1.83-.84,2.63-.84,1.4,0,2.37.41,2.91,1.24.53.83.8,2.11.8,3.84v5.71h-2.82v-5.63c0-.9-.11-1.56-.32-1.99-.21-.43-.63-.64-1.26-.64-.58,0-1.13.1-1.66.29l-.25.09v7.88h0ZM124.09,38.99v-10.54h2.82v10.54h-2.82ZM63.04,34.18v4.8h-2.91v-14.32h5.56c3.37,0,5.06,1.57,5.06,4.72,0,1.87-.7,3.25-2.11,4.13l2.04,5.48h-3.18l-1.66-4.8h-2.8ZM105,34.52c-.79.07-1.18.49-1.18,1.26s.34,1.16,1.03,1.16c.53,0,1.12-.08,1.75-.25l.32-.08v-2.26l-1.92.17ZM132.86,34.52c-.79.07-1.18.49-1.18,1.26s.34,1.16,1.03,1.16c.53,0,1.12-.08,1.75-.25l.32-.08v-2.26l-1.92.17ZM75.53,36.08c.29.51.8.76,1.55.76s1.26-.25,1.55-.76c.29-.51.43-1.3.43-2.38s-.14-1.87-.43-2.36c-.29-.49-.8-.74-1.55-.74s-1.26.25-1.55.74-.43,1.28-.43,2.36.14,1.88.43,2.38ZM67.27,31.07c.34-.42.51-.98.51-1.66s-.18-1.24-.54-1.64c-.36-.41-.88-.61-1.55-.61h-2.66v4.55h2.7c.7,0,1.21-.22,1.54-.64ZM124.09,27.1v-2.86h2.82v2.86h-2.82ZM69.21,17.68c-1.49.32-2.83.48-4.02.48s-2.15-.15-2.87-.44c-.72-.29-1.28-.77-1.69-1.41-.41-.65-.69-1.4-.84-2.28-.15-.87-.23-1.97-.23-3.29,0-2.77.39-4.7,1.17-5.79.78-1.09,2.22-1.63,4.31-1.63,1.21,0,2.61.19,4.19.57l-.08,2.32c-1.39-.2-2.55-.31-3.47-.31s-1.58.12-1.97.37-.68.71-.88,1.4c-.19.69-.28,1.86-.28,3.52s.19,2.81.58,3.45c.39.64,1.16.96,2.32.96s2.39-.1,3.7-.29l.06,2.37ZM96.77,15.25c.33.29.81.43,1.42.43,1.31,0,2.47-.04,3.5-.13l.59-.06.04,2.09c-1.62.39-3.08.59-4.38.59-1.59,0-2.74-.42-3.46-1.26s-1.07-2.21-1.07-4.11c0-3.78,1.55-5.67,4.66-5.67s4.59,1.59,4.59,4.76l-.21,1.96h-6.2c.02.64.19,1.11.52,1.4ZM71.72,8.57c.74-.96,1.99-1.44,3.73-1.44s2.99.48,3.73,1.44,1.12,2.31,1.12,4.06c0,3.7-1.62,5.54-4.85,5.54s-4.85-1.85-4.85-5.54c0-1.75.38-3.1,1.12-4.06ZM91.32,3.16v14.75h-2.8v-.44c-.98.46-1.83.69-2.55.69-1.53,0-2.6-.44-3.2-1.33-.6-.89-.91-2.29-.91-4.2s.36-3.32,1.09-4.19c.72-.88,1.82-1.32,3.28-1.32.45,0,1.07.07,1.88.21l.4.08V3.16h2.81ZM117.33,8.57c.74-.96,1.99-1.44,3.73-1.44s2.99.48,3.73,1.44,1.12,2.31,1.12,4.06c0,3.7-1.61,5.54-4.85,5.54s-4.85-1.85-4.85-5.54c0-1.75.37-3.1,1.12-4.06ZM127.97,17.91V7.38h2.8v1.12c1.18-.7,2.3-1.16,3.37-1.37v2.85c-1.14.24-2.12.48-2.93.74l-.42.15v7.06h-2.82v-.02ZM112.65,9.78v8.13h-2.82v-8.13h-1.14v-2.4h1.14v-.47c0-1.52.22-2.56.67-3.14s1.25-.86,2.4-.86c.51,0,1.16.07,1.96.21l.44.06-.04,2.3c-.62-.03-1.14-.04-1.56-.04s-.7.11-.84.34c-.14.23-.21.61-.21,1.16v.44h2.55v2.4h-2.55ZM119.51,15.01c.29.51.8.76,1.55.76s1.26-.25,1.55-.76.43-1.3.43-2.38-.14-1.87-.43-2.36c-.29-.49-.8-.74-1.55-.74s-1.26.25-1.55.74c-.29.49-.43,1.28-.43,2.36s.14,1.87.43,2.38ZM73.9,15.01c.29.51.8.76,1.55.76s1.26-.25,1.55-.76.43-1.3.43-2.38-.14-1.87-.43-2.36c-.29-.49-.8-.74-1.55-.74s-1.26.25-1.55.74c-.29.49-.43,1.28-.43,2.36s.14,1.87.43,2.38ZM88.2,15.38l.3-.06v-5.54c-.77-.14-1.46-.21-2.07-.21-1.14,0-1.71,1.01-1.71,3.03,0,1.1.13,1.88.38,2.34s.67.7,1.25.7,1.21-.09,1.85-.26ZM99.88,11.7c0-.84-.13-1.43-.4-1.76-.27-.33-.73-.49-1.4-.49s-1.14.17-1.41.52c-.27.34-.42.92-.43,1.74h3.64Z"/></svg>