<?xml version="1.0" encoding="UTF-8"?><svg xmlns="http://www.w3.org/2000/svg" viewBox="0 0 3286.5 595.8"><path d="M1392.1,12.4l-84.3,12.4-154,273.2,153.9,273.1,84.3,12.4-163.7-285.5L1392.1,12.4ZM1608.4,12.4l84.4,12.5,153.9,273.1-153.9,272.9-84.3,12.4,163.8-285.5L1608.4,12.4Z" fill="#010101"/><path d="M1392.1,12.4l108.1-12.4v298h-271.9L1392.1,12.4Z" fill="#f3f3f3"/><path d="M1392.1,583.4l108.1,12.4v-297.8h-271.9l163.8,285.4Z" fill="#d9d9d8"/><path d="M1608.4,583.4l-108.1,12.4v-297.8h271.9l-163.8,285.4Z" fill="#bcbcbc"/><path d="M1608.4,12.4l-108.1-12.4v298h271.9L1608.4,12.4Z" fill="#e9e8e9"/><path d="M2235.7,235c-4.4,25.9-15,46.1-32,60.4s-38.1,21.5-63.3,21.5c-27.6,0-50.9-9.5-69.8-28.4-11.1-11.1-18.2-24.1-21.1-38.9-2.9-14.6-4.4-36-4.4-64.4s1.4-49.8,4.4-64.4c2.9-14.8,9.9-27.8,21.1-38.9,18.9-18.9,42.2-28.4,69.8-28.4,25.2,0,46.3,7.1,63.3,21.4s27.6,34.4,32,60.4h-51.3c-6.1-24.5-20.6-36.7-43.6-36.7-14.1,0-24.9,4.5-32.4,13.5-5.3,5.6-8.9,13-10.6,22.2-1.4,9-2.2,25.9-2.2,50.9s.7,42.1,2.2,51.3c1.7,9,5.2,16.2,10.6,21.8,7.5,9,18.3,13.5,32.4,13.5,23,0,37.6-12.2,43.6-36.7l51.3-.1h0ZM2426.3,219.7c0,18.2-1.6,33-4.7,44.4-2.9,11.2-8.5,21-16.7,29.5-14.5,15.5-34.2,23.3-58.9,23.3s-44-7.8-58.6-23.3c-8.2-8.5-13.9-18.3-17.1-29.5-2.9-11.4-4.4-26.2-4.4-44.4s1.4-32.5,4.4-43.6c3.1-11.4,8.9-21.3,17.1-29.8,14.6-15.5,34.1-23.3,58.6-23.3s44.4,7.8,58.9,23.3c8.2,8.5,13.8,18.4,16.7,29.8,3.1,11.1,4.7,25.6,4.7,43.6ZM2379,219.7c0-23.3-3.6-38.6-10.9-45.8-5.6-5.6-13-8.4-22.2-8.4s-16.2,2.8-21.8,8.4c-7.3,7.3-10.9,22.6-10.9,45.8s3.6,38.9,10.9,46.2c5.6,5.6,12.9,8.4,21.8,8.4s16.6-2.8,22.2-8.4c7.3-7.3,10.9-22.7,10.9-46.2h0ZM2737.2,314.6h-47.3v-114.6c0-11.9-3.1-20.6-9.5-26.2-6.1-5.6-13.3-8.4-21.8-8.4s-15.9,2.8-22.2,8.4c-6.3,5.3-9.5,13.7-9.5,25.1v115.6h-47.3v-114.5c0-11.9-3.1-20.6-9.5-26.2-6.1-5.6-13.3-8.4-21.8-8.4s-16.2,2.8-22.5,8.4c-6.1,5.6-9.1,14.3-9.1,26.2v114.6h-47.3V125.1h46.2v17.4c12.6-13.1,28.4-19.6,47.3-19.6,21.8,0,38.5,8,50.2,24,15.3-16,34.2-24,56.7-24,19.9,0,35.4,5.6,46.6,16.7,13.8,13.8,20.7,31.8,20.7,53.8l.1,121.2h0ZM3053.9,314.6h-47.3v-114.6c0-11.9-3.1-20.6-9.5-26.2-6.1-5.6-13.3-8.4-21.8-8.4s-15.9,2.8-22.2,8.4c-6.3,5.3-9.5,13.7-9.5,25.1v115.6h-47.3v-114.5c0-11.9-3.1-20.6-9.5-26.2-6.1-5.6-13.3-8.4-21.8-8.4s-16.2,2.8-22.5,8.4c-6.1,5.6-9.1,14.3-9.1,26.2v114.6h-47.3V125.1h46.2v17.4c12.6-13.1,28.4-19.6,47.3-19.6,21.8,0,38.5,8,50.2,24,15.3-16,34.2-24,56.7-24,19.9,0,35.4,5.6,46.5,16.7,13.8,13.8,20.7,31.8,20.7,53.8l.2,121.2h0ZM3150.3,314.6h-47.3V125.1h47.3v189.5ZM3150.7,92.8h-48.4v-38.5h48.4v38.5ZM3286.4,314.6h-25.8c-17.9,0-31.6-5.3-41.1-16-9.2-10.7-13.8-23.4-13.8-38.2v-93.8h-20v-36h20v-56h47.3v56h33.4v36h-33.4v90.9c0,11.4,5.5,17.1,16.4,17.1h17.1v40h-.1Z"/><path d="M2133.6,480.4c0,8.6-.9,15.6-2.6,21.1-1.6,5.5-4.5,10.4-8.6,14.7-8.8,8.9-19.8,13.3-33.1,13.3-12.5,0-23-4.3-31.6-12.8-5.1-5-8.2-10.9-9.6-17.6-1.3-6.6-2-16.3-2-29.1s.7-22.5,2-29.1c1.3-6.7,4.5-12.6,9.6-17.6,8.6-8.6,19.1-12.8,31.6-12.8s22.7,3.5,30.3,10.5,12.2,16,13.8,27h-23c-2.9-11.4-9.9-17.1-21.1-17.1-6.1,0-11,2.1-14.6,6.2-2.3,2.9-3.8,6.3-4.6,10.4-.7,4-1,11.5-1,22.5s.3,19,1,23c.8,4,2.3,7.3,4.6,10,3.4,4.1,8.3,6.1,14.6,6.1,6.8,0,12.2-2.2,16.3-6.6,3.5-4.1,5.3-9.3,5.3-15.6v-4.6h-21.6v-19.1h44.3v17.2h0ZM2237.6,528.4h-76v-117.2h22.9v96.8h53.2v20.4h-.1ZM2340.9,455.2c.1,3.1.2,8,.2,14.7s-.1,11.6-.2,14.6c-.1,3.1-.5,6.9-1.1,11.5-.7,4.5-1.9,8.3-3.6,11.5-1.6,3.2-3.9,6.2-6.8,9-8.6,8.6-19.1,12.8-31.6,12.8s-23.2-4.3-31.8-12.8c-2.9-2.8-5.1-5.8-6.8-8.9-1.6-3.2-2.8-7.1-3.5-11.8s-1-8.5-1.1-11.4-.2-7.7-.2-14.7.1-11.8.2-14.6c.1-2.9.5-6.6,1.1-11.4.7-4.7,1.8-8.6,3.5-11.7,1.6-3.2,3.9-6.2,6.8-9,8.6-8.6,19.1-12.8,31.8-12.8s23,4.3,31.6,12.8c2.9,2.8,5.1,5.9,6.8,9,1.8,3.2,3,7.1,3.6,11.7s1,8.4,1.1,11.5h0ZM2317.1,492.7c.8-4.3,1.1-11.9,1.1-22.9s-.4-18.5-1.1-22.7c-.8-4.3-2.3-7.7-4.6-10.2-3.6-4.2-8.5-6.2-14.6-6.2s-11.2,2.1-14.8,6.2c-2.3,2.5-3.8,5.9-4.6,10-.7,4.2-1,11.8-1,22.9s.3,18.7,1,22.9c.8,4.2,2.3,7.5,4.6,10,3.6,4.2,8.6,6.2,14.8,6.2s11-2.1,14.6-6.2c2.3-2.5,3.8-5.8,4.6-10h0ZM2455.9,494.7c0,10.6-3.3,18.9-9.9,24.8-6.6,5.9-15.2,8.9-26,8.9h-49.1v-117.2h47.1c11.3,0,20.1,3,26.5,8.9,6.5,5.9,9.7,13.9,9.7,24,0,5.9-1.5,11-4.6,15.3-3,4.2-6.3,7.1-9.9,8.9,10.8,5.1,16.2,13.9,16.2,26.4h0ZM2429.1,503.9c2.6-2.7,3.9-6.2,3.9-10.4s-1.3-7.6-3.9-10.2c-2.6-2.7-6.4-4.1-11.4-4.1h-23.9v28.8h23.9c5,0,8.7-1.3,11.4-4.1h0ZM2427.4,455c2.6-2.5,3.9-5.8,3.9-9.9s-1.3-7.3-3.9-9.7c-2.6-2.5-6.4-3.8-11.2-3.8h-22.4v27h22.4c4.9,0,8.6-1.2,11.2-3.6h0ZM2576.4,528.4h-23.9l-6.9-20.7h-41.6l-7.1,20.7h-23.9l42.6-117.2h17.9l42.9,117.2h0ZM2539.5,488.4l-14.3-42.6-14.8,42.6h29.1ZM2673.5,528.4h-76v-117.1h22.9v96.8h53.2l-.1,20.3h0Z"/><path d="M132.9,198.4c-3.1,18.1-10.5,32.1-22.3,42.1s-26.6,15-44.2,15c-19.3,0-35.5-6.6-48.7-19.8-7.8-7.8-12.7-16.8-14.7-27.2-2-10.1-3-25.1-3-44.9s1-34.8,3-44.9c2-10.3,6.9-19.4,14.7-27.1,13.2-13.2,29.4-19.8,48.7-19.8,17.6,0,32.3,5,44.2,15,11.8,10,19.3,24,22.3,42.1h-35.8c-4.2-17.1-14.4-25.6-30.5-25.6-9.8,0-17.3,3.1-22.6,9.4-3.7,3.9-6.1,9-7.2,15.4-1.1,6.3-1.7,18.2-1.7,35.6s.6,29.3,1.7,35.6c1.1,6.3,3.5,11.5,7.2,15.4,5.2,6.3,12.8,9.4,22.6,9.4,16.1,0,26.2-8.5,30.5-25.6h35.8v-.1Z"/><path d="M267.2,187.7c0,12.7-1.1,23-3.2,30.8-2.1,7.9-6,14.8-11.8,20.7-10.1,10.8-23.9,16.2-41.1,16.2s-30.7-5.4-40.9-16.2c-5.8-5.9-9.7-12.8-11.8-20.7-2.1-7.9-3.2-18.1-3.2-30.8s1.1-22.7,3.2-30.6,6-14.8,11.8-20.7c10.1-10.8,23.8-16.2,40.9-16.2s31,5.4,41.1,16.2c5.8,5.9,9.7,12.8,11.8,20.7,2.1,7.9,3.2,18.1,3.2,30.6h0ZM234.2,187.7c0-16.2-2.5-26.9-7.6-32-3.9-3.9-9.1-5.8-15.5-5.8s-11.3,1.9-15.2,5.8c-5.1,5.1-7.6,15.7-7.6,32s2.5,27.1,7.6,32.2c3.9,3.9,9,5.8,15.2,5.8s11.6-1.9,15.5-5.8c5.1-5,7.6-15.8,7.6-32.2Z"/><path d="M404,253.9h-32.2v-12.4c-8.3,9.3-19.2,14-32.7,14s-24.5-4-32.5-11.9c-4.1-4.1-7.1-9.6-9.3-16.6-2.1-7-3.3-13.1-3.7-18.3-.3-5.2-.5-12.1-.5-20.9s.2-15.8.5-20.9c.3-5.2,1.6-11.2,3.7-18.1,2.1-6.9,5.2-12.4,9.3-16.5,8-8,18.7-11.9,32.2-11.9s24.3,4.4,32.2,13.2v-60.3h33v180.6h0ZM366.5,216.1c3-6.4,4.4-15.9,4.4-28.4s-1.5-22-4.4-28.3c-3-6.3-9-9.5-18.1-9.5s-15.1,3.2-18,9.5-4.3,15.8-4.3,28.3c0,6.1.2,11.2.8,15.2s1.5,7.9,2.9,11.7c1.4,3.7,3.7,6.5,6.9,8.4s7.1,2.8,11.8,2.8c9,0,15.1-3.2,18-9.7h0Z"/><path d="M549.6,198.1h-82.7c0,8.8,2.6,15.9,7.7,21.3,5.2,5.4,12.2,8.1,21.2,8.1,6.9,0,12.6-1,16.9-2.9,4.3-1.9,8.7-5.1,13.1-9.5l20,19.5c-7.3,7.3-14.6,12.6-22.1,15.9-7.5,3.3-16.8,5-28.2,5-8.5,0-16.1-1.1-23-3.2-6.8-2.1-13.2-5.6-19.2-10.5-5.9-4.9-10.6-11.9-14-21.1-3.4-9.1-5.1-20.1-5.1-33,0-21.1,5.2-37.7,15.7-49.6s24.4-17.9,41.9-17.9,32,5.9,42.2,17.6c10.2,11.8,15.3,26.9,15.3,45.6l.3,14.7h0ZM517.1,175.5c-.2-5.2-1.2-10-3-14.2-4.1-9.1-11.4-13.7-22.1-13.7s-18,4.6-22.1,13.7c-1.9,4.2-2.9,9-3,14.2h50.2Z"/><path d="M700.4,150.7h-24.4v103.3h-33v-103.3h-13.7v-25.1h13.7v-16.5c0-10.3,3.3-19.2,9.9-26.6,6.6-7.4,16.2-11.2,28.7-11.2h18.8v27.9h-13c-7.6,0-11.4,4-11.4,11.9v14.5h24.4v25.1h0Z"/><path d="M828,187.7c0,12.7-1.1,23-3.2,30.8-2.1,7.9-6,14.8-11.8,20.7-10.2,10.8-23.8,16.2-41.1,16.2s-30.7-5.4-40.9-16.2c-5.8-5.9-9.7-12.8-11.8-20.7s-3.2-18.1-3.2-30.8,1-22.7,3.2-30.6c2.1-7.9,6-14.8,11.8-20.7,10.2-10.8,23.8-16.2,40.9-16.2s31,5.4,41.1,16.2c5.8,5.9,9.7,12.8,11.8,20.7,2.1,7.9,3.2,18.1,3.2,30.6h0ZM795,187.7c0-16.2-2.5-26.9-7.6-32-3.9-3.9-9.1-5.8-15.5-5.8s-11.3,1.9-15.2,5.8c-5.1,5.1-7.6,15.7-7.6,32s2.5,27.1,7.6,32.2c3.9,3.9,9,5.8,15.2,5.8s11.6-1.9,15.5-5.8c5.1-5,7.6-15.8,7.6-32.2Z"/><path d="M956.2,132.6l-24.9,25.1c-5.2-5.2-11.1-7.9-17.5-7.9-5.6,0-10.5,2.1-14.8,6.3-4.3,4.2-6.5,10.2-6.5,18v79.7h-33V121.7h32.2v12.7c3.4-4.1,8.1-7.4,14.1-10.1s12.4-4.1,19.2-4.1c12.5,0,22.9,4.2,31.2,12.4h0Z"/><path d="M142.8,526.1h-40.9l-35.3-72.1h-25.4v72.1H5.9v-180.7h70.8c17.9,0,32.2,5.3,42.8,16,10.6,10.7,15.9,23.8,15.9,39.3,0,12-3.1,22.1-9.4,30.2-6.3,8.1-14.1,13.9-23.6,17.3l40.4,77.9h0ZM93.1,418c4.7-4.4,7.1-10.2,7.1-17.3s-2.4-12.9-7.1-17.3c-4.7-4.4-10.9-6.6-18.5-6.6h-33.2v47.7h33.2c7.6.1,13.8-2.1,18.5-6.5h0Z"/><path d="M275.8,459.9c0,12.7-1.1,23-3.2,30.8-2.1,7.9-6,14.8-11.8,20.7-10.1,10.8-23.8,16.2-41.1,16.2s-30.7-5.4-40.9-16.2c-5.8-5.9-9.7-12.8-11.8-20.7-2.1-7.9-3.2-18.1-3.2-30.8s1-22.7,3.2-30.6c2.1-7.9,6.1-14.8,11.8-20.7,10.1-10.8,23.8-16.2,40.9-16.2s31,5.4,41.1,16.2c5.8,5.9,9.7,12.8,11.8,20.7s3.2,18.1,3.2,30.6ZM242.8,459.9c0-16.2-2.5-26.9-7.6-32-3.9-3.9-9-5.8-15.5-5.8s-11.3,2-15.2,5.8c-5.1,5.1-7.6,15.7-7.6,32s2.5,27.1,7.6,32.2c3.9,3.9,9,5.8,15.2,5.8s11.6-1.9,15.5-5.8c5.1-5.1,7.6-15.8,7.6-32.2Z"/><path d="M494,526.1h-33v-79.9c0-8.3-2.2-14.4-6.5-18.3-4.3-3.9-9.4-5.8-15.3-5.8s-11.1,1.9-15.5,5.7-6.6,9.7-6.6,17.6v80.7h-33v-79.9c0-8.3-2.2-14.4-6.5-18.3-4.3-3.9-9.4-5.8-15.3-5.8s-11.3,2-15.6,5.8c-4.3,3.9-6.5,10-6.5,18.3v79.9h-33v-132.2h32.2v12.2c8.8-9.1,19.8-13.7,33-13.7,15.2,0,26.9,5.6,35,16.8,10.7-11.2,23.9-16.8,39.6-16.8,13.9,0,24.7,3.9,32.5,11.7,9.6,9.6,14.5,22.2,14.5,37.6v84.4h0Z"/><path d="M629.6,526.1h-32.2v-11.4c-4.6,4.6-9.3,7.8-14.1,9.8s-11,2.9-18.4,2.9c-14.7,0-26-3.9-33.8-11.7-7.3-7.6-10.9-17.5-10.9-29.7,0-11.2,3.8-20.3,11.5-27.5s18.9-10.8,33.6-10.8h31.2v-6.6c0-7.3-2-12.6-5.8-15.9s-10.2-5-18.8-5c-6.3,0-11.2.8-14.7,2.4-3.5,1.6-7.1,4.4-10.7,8.5l-21.1-20.6c6.3-6.9,12.9-11.7,20-14.3s16.3-3.9,27.7-3.9c37.6,0,56.3,15.6,56.3,46.7v87.1h.2ZM596.6,477.4v-7.1h-26.2c-5.9,0-10.5,1.3-13.7,3.9-3.2,2.6-4.8,6.3-4.8,11,0,10.2,6.3,15.2,19,15.2,9.5,0,16.4-2.1,20.8-6.3,3.3-3,4.9-8.6,4.9-16.7Z"/><path d="M775,526.1h-33v-79.9c0-8.3-2.2-14.4-6.5-18.3-4.3-3.9-9.4-5.8-15.3-5.8s-11.3,2-15.6,5.8c-4.3,3.9-6.5,10-6.5,18.3v79.9h-33v-132.2h32.2v12.2c8.6-9.1,19.6-13.7,33-13.7s23.4,3.9,31.2,11.7c9,9,13.4,21.5,13.4,37.6l.1,84.4h0Z"/><path d="M843.7,371.3h-33.8v-26.9h33.8v26.9ZM843.5,526.1h-33v-132.2h33v132.2Z"/><path d="M980.3,526.1h-32.2v-11.4c-4.6,4.6-9.3,7.8-14.1,9.8-4.8,1.9-11,2.9-18.4,2.9-14.7,0-26-3.9-33.8-11.7-7.3-7.6-10.9-17.5-10.9-29.7,0-11.2,3.8-20.3,11.5-27.5s18.9-10.8,33.6-10.8h31.2v-6.6c0-7.3-2-12.6-5.8-15.9s-10.2-5-18.8-5c-6.3,0-11.2.8-14.7,2.4-3.5,1.6-7.1,4.4-10.7,8.5l-21.1-20.6c6.3-6.9,12.9-11.7,20.1-14.3,7.1-2.6,16.3-3.9,27.7-3.9,37.6,0,56.3,15.6,56.3,46.7v87.1h.1ZM947.3,477.4v-7.1h-26.1c-5.9,0-10.5,1.3-13.7,3.9-3.2,2.6-4.8,6.3-4.8,11,0,10.2,6.3,15.2,19,15.2,9.5,0,16.4-2.1,20.8-6.3,3.2-3,4.8-8.6,4.8-16.7Z"/></svg>