<svg fill="none" height="75" viewBox="0 0 85 75" width="85" xmlns="http://www.w3.org/2000/svg" xmlns:xlink="http://www.w3.org/1999/xlink"><clipPath id="a"><path d="m0 0h85v75h-85z"/></clipPath><g clip-path="url(#a)"><path d="m40.174 43.362c-.141.988-.141 2.118-.423 3.107-.282.847-.846 1.554-.987 2.542-.141.706 0 1.554 0 2.401v1.13h-1.269c-.845 0-.704.283-1.55.424-1.833 0-3.524-.282-5.357-.141-1.691 0-2.255-1.13-3.242-2.401-1.41-2.119-3.806-4.096-4.37-6.639-.282-.988-.564-2.118-.564-3.248v-1.978-.565c-.14-.565-.563-1.553-.281-1.977.14-.141.281-.283.704-.283s.987.142 1.269.424c.564.424.987 1.271 1.128 1.978.14.565 0 1.13.14 1.553.142.706.564 1.413.846 1.978.141-1.695.141-3.249.141-5.085v-4.379c0-2.118.141-6.214.141-6.214v-.707c.141-.564.282-1.13.846-1.27a2.398 2.398 0 0 1 1.41 0c.564.282.564.847.704 1.553v7.062c0 .848.142 2.26.423 2.542.141-.14.141-.564.141-.847v-.847c0-.424 0-11.159.141-11.724.282-.847 1.692-.988 2.397-.565.705.424.705 11.582.705 12.289 0 .282.281.988.422.706.282-.706 0-11.158.423-11.44.564-.707 1.55-.707 2.256-.142.986.706.704 12.57 1.127 12.57.282.142.282-7.768.564-8.05.282-.283.846-.283 1.269-.283 1.691-.141 1.127 8.898 1.268 10.028-.281 2.26-.281 4.379-.422 6.498z" fill="#e7b088"/><path d="m39.61 50.565-12.405.282v2.825l12.405-.283v-2.825z" fill="#d1e9f5"/><path d="m26.642 24.717v.989c0 .565.422.989.845 1.13.705.141 1.41-.424 1.41-1.13v-.989c0-.282-.282-.565-.564-.565h-1.128c-.281 0-.563.283-.563.565zm10.854 2.967v.706c0 .424.282.848.704.848a.964.964 0 0 0 .987-.989v-.706c0-.283-.282-.424-.423-.424l-.846.141c-.281 0-.422.142-.422.424zm-14.801 10.31c0 .282-.282.423-.564.423v-.565c-.141-.565-.564-1.553-.282-1.977.282.282.986 1.271.846 2.119z" fill="#f2c4a5"/><path d="m29.742 52.967h-4.792v22.033h4.792z" fill="#22152d"/><path d="m41.583 52.967h-11.84v22.033h11.84z" fill="#352245"/><path d="m30.024 22.174v.989c0 .565.423 1.13.987 1.13.705.141 1.41-.424 1.41-1.13v-.989c0-.282-.282-.565-.564-.565h-1.269c-.282 0-.564.283-.564.565zm3.806 1.131v.989c0 .565.424 1.13.846 1.13.705.141 1.41-.424 1.41-1.13v-.989c0-.282-.282-.565-.564-.565h-1.268c-.142.142-.423.283-.423.565z" fill="#f2c4a5"/><path d="m18.325 32.344c-.141.989-.141 2.119-.423 3.108-.282.847-.846 1.553-.987 2.542-.14.706 0 1.554 0 2.401v1.13h-1.268c-.846 0-.705.282-1.55.424-1.833 0-3.525-.283-5.357-.142-1.692 0-2.256-1.13-3.243-2.4-1.41-2.12-3.806-4.097-4.37-6.64-.28-.987-.562-2.117-.562-3.247v-1.977-.565c-.142-.566-.565-1.555-.283-1.978.14-.142.282-.283.705-.283s.986.141 1.268.424c.564.424.987 1.271 1.128 1.977.141.565 0 1.13.141 1.554.14.706.564 1.412.846 1.977 0-1.977 0-3.39-.141-5.226v-4.378c0-2.119.14-6.215.14-6.215v-.706c.142-.565.283-1.13.847-1.271.422-.142 1.127-.142 1.55.14.564.283.564.848.705 1.555v7.062c0 .847.14 2.26.423 2.542.14-.141.14-.565.14-.847v-.848c0-.424 0-11.158.142-11.723.282-.706 1.55-.989 2.255-.424.705.424.705 11.582.705 12.289 0 .282.282.988.423.706.282-.706 0-11.159.423-11.441.564-.706 1.55-.706 2.255-.141.987.706.705 12.57 1.128 12.57.282.142.282-7.768.564-8.05.281-.283.845-.283 1.268-.283 1.692-.141 1.128 8.898 1.269 10.028.14 2.119.14 4.238-.141 6.356z" fill="#e7b088"/><path d="m17.761 39.547-12.263.141v2.825l12.263-.282z" fill="#d1e9f5"/><path d="m4.934 13.7v.988c0 .565.422.99.845 1.13.705.142 1.41-.423 1.41-1.13v-.988c0-.283-.282-.565-.564-.565h-1.269c-.281 0-.422.141-.422.565zm10.854 2.826v.706c0 .424.282.848.704.848a.964.964 0 0 0 .987-.99v-.705c0-.283-.282-.424-.423-.424l-.846.141c-.281 0-.422.283-.422.424zm-14.801 10.45c0 .283-.282.424-.564.424v-.565c-.141-.565-.564-1.555-.283-1.978.14.283.986 1.272.846 2.12z" fill="#f2c4a5"/><path d="m8.034 41.95h-4.792v33.19h4.792z" fill="#e2b500"/><path d="m19.734 41.95h-11.84v33.19h11.84z" fill="#fc0"/><path d="m8.176 11.016v.989c0 .565.423 1.13.987 1.13.704.141 1.41-.424 1.41-1.13v-.989c0-.282-.283-.565-.565-.565h-1.268c-.282 0-.564.283-.564.565zm3.805 1.272v.988c0 .565.423 1.13.846 1.13.705.141 1.41-.424 1.41-1.13v-.988c0-.283-.282-.565-.564-.565h-1.128c-.282 0-.564.282-.564.565z" fill="#f2c4a5"/><path d="m61.882 22.317c-.14.988-.14 2.118-.423 3.107-.282.848-.846 1.554-.987 2.542-.14.707 0 1.554 0 2.401v1.13h-1.268c-.846 0-.705.283-1.55.424-1.833 0-3.525-.282-5.357-.141-1.692 0-2.256-1.13-3.242-2.401-1.41-2.119-3.806-4.096-4.37-6.639-.282-.988-.564-2.118-.564-3.248v-1.978-.565c-.141-.565-.564-1.553-.282-1.977.14-.141.282-.282.705-.282s.987.14 1.268.423c.564.424.987 1.271 1.128 1.978.141.565 0 1.13.141 1.553.141.707.564 1.413.846 1.978v-5.085-4.379c0-2.118.14-6.214.14-6.214v-.706c.142-.565.283-1.13.847-1.272a2.398 2.398 0 0 1 1.41 0c.563.283.563.848.704 1.554v7.062c0 .848.141 2.26.423 2.543.14-.142.14-.565.14-.848v-.847c0-.424 0-11.159.142-11.723.282-.848 1.691-.99 2.396-.565.705.423.705 11.582.705 12.288 0 .282.282.988.423.706.282-.706 0-11.158.423-11.44.564-.707 1.55-.707 2.255-.142.987.706.705 12.57 1.128 12.57.282.142.282-7.768.564-8.05.282-.283.845-.283 1.268-.283 1.692-.141 1.128 8.899 1.269 10.028 0 2.26 0 4.379-.282 6.498z" fill="#e7b088"/><path d="m61.318 29.52-12.263.282v2.684l12.263-.142z" fill="#d1e9f5"/><path d="m48.49 3.672v.99c0 .564.424.988.846 1.129.705.141 1.41-.424 1.41-1.13v-.989c0-.282-.282-.565-.564-.565h-1.127c-.423 0-.564.283-.564.565zm10.855 2.825v.706c0 .424.282.847.705.847a.965.965 0 0 0 .986-.988v-.707c0-.282-.282-.423-.423-.423l-.845.14c-.282 0-.423.283-.423.425zm-14.801 10.452c0 .282-.282.423-.564.423v-.564c-.141-.566-.564-1.554-.282-1.978.14.283.987 1.271.846 2.119z" fill="#f2c4a5"/><path d="m51.592 31.922h-4.793v43.22h4.793z" fill="#e2b500"/><path d="m63.291 31.922h-11.84v43.22h11.84z" fill="#fc0"/><path d="m51.873.989v.989c0 .564.423 1.13.987 1.13.705.14 1.41-.424 1.41-1.13v-.99c0-.282-.282-.564-.564-.564h-1.269c-.422.141-.563.282-.563.565zm3.666 1.271v.989c0 .565.422 1.13.845 1.13.705.141 1.41-.424 1.41-1.13v-.989c0-.282-.282-.565-.564-.565h-1.268c-.142 0-.423.283-.423.565z" fill="#f2c4a5"/><path d="m83.731 48.305c-.14.989-.14 2.119-.423 3.107-.282.848-.845 1.554-.986 2.543-.141.706 0 1.553 0 2.4v1.131h-1.269c-.846 0-.705.282-1.55.424-1.833 0-3.525-.283-5.357-.142-1.692 0-2.256-1.13-3.242-2.4-1.41-2.12-3.806-4.097-4.37-6.64-.282-.988-.564-2.118-.564-3.248v-1.977-.565c-.14-.565-.564-1.554-.282-1.978.141-.14.282-.282.705-.282s.987.141 1.269.424c.563.423.986 1.27 1.127 1.977.141.565 0 1.13.141 1.554.141.706.564 1.412.846 1.977.141-1.836.141-3.248.141-5.085v-4.378c0-2.119.14-6.215.14-6.215v-.706c.142-.565.283-1.13.847-1.271a2.397 2.397 0 0 1 1.41 0c.563.282.563.847.704 1.553v7.063c0 .847.141 2.26.423 2.542-.141-.141-.141-.565-.141-.848v-.847c0-.424 0-11.158.141-11.723.282-.848 1.691-.989 2.396-.565s.705 11.582.705 12.288c0 .282.282.989.423.706.282-.706.141-11.158.423-11.44.564-.707 1.55-.707 2.255-.142.987.706.705 12.57 1.128 12.57.282.142.282-7.768.564-8.05s.846-.282 1.269-.282c1.691-.142 1.127 8.898 1.268 10.028 0 2.118.141 4.378-.14 6.497z" fill="#e7b088"/><path d="m83.168 55.508-12.264.141v2.825l12.264-.283z" fill="#d1e9f5"/><path d="m70.199 29.52v.989c0 .565.423.988.846 1.13.704.14 1.41-.424 1.41-1.13v-.989c0-.282-.283-.565-.565-.565h-1.127c-.282.141-.564.283-.564.565zm10.854 2.965v.706c0 .424.282.848.704.848a.965.965 0 0 0 .987-.99v-.705c0-.283-.282-.424-.423-.424l-.845.141c-.282 0-.423.283-.423.424zm-14.66 10.452c0 .282-.282.424-.564.424v-.565c-.141-.565-.564-1.554-.282-1.978.14.283.846 1.272.846 2.119z" fill="#f2c4a5"/><path d="m73.3 57.91h-4.793v17.232h4.793z" fill="#22152d"/><path d="m85.14 57.91h-11.84v17.232h11.84z" fill="#352245"/><path d="m73.582 26.977v.989c0 .565.423 1.13.987 1.13.705.141 1.41-.424 1.41-1.13v-.989c0-.282-.282-.565-.564-.565h-1.27c-.281 0-.563.283-.563.565zm3.806 1.272v.988c0 .565.423 1.13.846 1.13.704.142 1.41-.424 1.41-1.13v-.988c0-.283-.283-.565-.565-.565h-1.268c-.141 0-.423.282-.423.565z" fill="#f2c4a5"/></g></svg>