<svg viewBox="0 0 708.7 283.5"><g fill="#231f20"><path d="m360.9 166.2h-5.8l-10.6-20.8h-11.2v20.8h-5v-46.8h17.9c4.1 0 7.5 1.2 10 3.5 2.6 2.3 3.8 5.5 3.8 9.5s-.9 6.1-2.8 8.3c-1.8 2.2-4.3 3.6-7.4 4.3zm-8.5-27.3c1.7-1.5 2.5-3.6 2.5-6.3s-.9-4.9-2.6-6.4-4-2.2-6.8-2.2h-12.5v17.1h12.5c2.8 0 5.1-.7 6.8-2.2z"/><path d="m403.6 166.2h-29v-46.8h29v4.5h-24v16.5h20.5v4.5h-20.5v16.9h24v4.5z"/><path d="m443.2 166.2h-29v-4.7l23.4-37.6h-22.5v-4.5h28.1v4.2l-23.6 38.1h23.6z"/><path d="m489 150.8c0 4.6-1.5 8.4-4.6 11.4s-7 4.4-11.7 4.4-8.6-1.5-11.7-4.4c-3.1-3-4.6-6.8-4.6-11.4v-31.3h5v30.9c0 3.5 1 6.4 3.1 8.5s4.8 3.2 8.2 3.2 6.2-1.1 8.2-3.2c2.1-2.1 3.1-5 3.1-8.5v-30.9h5z"/><path d="m534.1 166.2h-28.9v-46.8h5v42.3h23.9z"/><path d="m568.1 123.9h-13.5v42.3h-5v-42.3h-13.5v-4.5h32.1v4.5z"/><path d="m608.8 166.2h-5.3l-3.7-10.6h-20.4l-3.7 10.6h-5.3l17.2-46.8h4.2l17.1 46.8zm-10.5-14.9-8.7-24.7-8.8 24.7z"/><path d="m642.9 123.9h-13.5v42.3h-5v-42.3h-13.5v-4.5h32.1v4.5z"/><path d="m684 166.2h-29v-46.8h29v4.5h-24v16.5h20.5v4.5h-20.5v16.9h24v4.5z"/><path d="m353.5 197.7-12.5 34.2h-6.7l-12.6-34.2h9l7 21.2 6.9-21.2h9z"/><path d="m388.7 214.8c0 3.3-.3 5.9-.8 8-.5 2-1.6 3.8-3.1 5.4-2.6 2.8-6.2 4.2-10.6 4.2s-7.9-1.4-10.6-4.2c-1.5-1.5-2.5-3.3-3.1-5.4-.5-2-.8-4.7-.8-8s.3-5.9.8-7.9 1.6-3.8 3.1-5.4c2.6-2.8 6.2-4.2 10.6-4.2s8 1.4 10.6 4.2c1.5 1.5 2.5 3.3 3.1 5.4.5 2 .8 4.7.8 7.9zm-8.5 0c0-4.2-.7-7-2-8.3-1-1-2.3-1.5-4-1.5s-2.9.5-3.9 1.5c-1.3 1.3-2 4.1-2 8.3s.7 7 2 8.3c1 1 2.3 1.5 3.9 1.5s3-.5 4-1.5 2-4.1 2-8.3z"/><path d="m415.5 231.9h-4.7c-3.2 0-5.7-1-7.4-2.9s-2.5-4.2-2.5-6.9v-16.9h-3.6v-6.5h3.6v-10.1h8.5v10.1h6v6.5h-6v16.4c0 2.1 1 3.1 3 3.1h3.1z"/></g><path d="m201.9 177.4h-177.2l88.6-153.5zm-157-11.7h136.8l-68.4-118.4z" fill="#73459b"/><path d="m204.2 259.6-88.6-153.5h177.2zm-68.3-141.8 68.4 118.4 68.4-118.4z" fill="#231f20"/><path d="m146.7 25.1h11.7v157h-11.7z" fill="#73459b" transform="matrix(.8660254 -.5 .5 .8660254 -31.3 90.1)"/></svg>