<svg xmlns="http://www.w3.org/2000/svg" viewBox="0 0 700 496"><g fill="#fc0" stroke="#fff" stroke-opacity="1" stroke-width="1" stroke-linecap="round" stroke-linejoin="round"><path d="M179.5,203.5l-3,2h-16l-6-6v-3h-2l1-4h-9l-4-6,2-3h-5v-2h-2l-1-3-9,3-5-2,2-3-3-2-6,3-10-2-6,2v6h-2l-3-7h-3l-3,2-1,3-3-3-5,3,1,4-2,4h-2v7h3l1,3-2,3,1,1-6,1-3,7v4h-5l-1,4-2,1h-3l-1-2-5,1v-2h-2v2l-3-1-1-2-7,1-2,3,1,6-2-1-2,5,5,2,4,5,7,2,1,4h10v3l3,3,4-2,5,3v-2h2l1-3,7,4,1-3h3l2-2-2-1,1-2,1,1,4-3,2,5-1,2,9,4-1,3,2-1,1,4,2-1,3-7,3,4-1,3h3l1-5,4,2,4-1v-2l5-1v2l6,1,5,4,2-1,4,4h2v-4h4v-4h3v-3l7-1-2-10,3-2,1-3-2-6,1-2,3-2,1,2,11-1,2-9,5-3-5-5v-2Z" /><path d="M514.5,164.5l-2,1v2h-2v2l-1-2h-2l-1-3h-6l-6,3v-3l-4-3,1-2-2-1-2,5-2,1,1,3-3,3-3-2v-3l-2,2,1-3h-5v4l-8,6h-11v2l-3,1-6-1-3-3,1-1-8,6-1-2h-5l-2-6-3,3-2-1-1,2,4,5-2-1-1,3,7,11-1,4h-4l1,2-3,2,1,3,4-1,9,4-2,6,3,2h2l2-3h4l-3,9,6,2v10h4l-1,3,3,1,3,7,2-1,6,3,5-4,1-3,6-2,6,3,5-2,4,4,1-4,3-2,9,2v-2h2l-1-4,5-4,5,1v-2l4-1v3h2l1,3,2-4,5,1,1,2h4v-7h-2l-2-8v-2h2l-8-22-7-12,3-2-2-3,3-2-8-4-1-4Z" /><path d="M347.5,74.5h-9l-2,3-6-1-5,4-2-4-5,2-13-5-2,4-4-1-5,9h-7l-6,13-3,2,1,5-2,2-2-2-4,2-1,5,3,10,5-2v4l1-1v2h5l1,4,2,1-3,6v8h6l-2,1v2h2l3,4v3l-2,2,1,1-2,1,3,6,6,3,2-2,2,2h3l2-4h3l-1-3,6-4v-7h2l2-4h3l2,4h7l-2-2v-3l9-15h5l3-3,4,2,4-4v-6l-2-2,3-5-4-3,4-2v-3l-1-4-6-5,3-2,3,2-1-1,3-2h-2l-1-4,4-4-3-1-1-4-3-1-1-2-3-1Z" /><path d="M527.5,75.5l-2-1v-2l-4-2-1-5-2-1,1-1-2-2h3v-3l-2-4-3-2,1-2h-2l3-1-3-2-1-6-4-2,2-3-3-3,3-2h-4v-3l-2,1,1-2h-2l-4-7,1-4h-6l-1-3,3,2v-2l-3-1v-2l-3-2,1,2-2-1,1-1h-2l-5-6-5,1-3-3-2,2-3-1-2,1,1,1h-3l-1,3h-7l-2,2h-5l-2,2-1-1v3l-11,18-6,2,2,6,4,1,1,4,2-2,3,2-1,1,4,3-1,1,2,3,4,4,3-1v4l-2,1,1,1,1-2,4,3-1,1,6,8v6h2l1,5,2,1-4,2,3,2v3l10-1-2-2,1-3,3,2,5-1,4,2,8-1,3,3,1,4,1-4,2,1-1-5,3-4,3,2,1-1,1,2h3l3-1v-4l3-2,3,1,4-2Z" /><path d="M160.5,282.5l-8,1-4,8-5-4-2,2h-4l-3,4-2-3v5l2,2-6,3-4-3-1-4-4,1,1,2-5,1-9-3-2-4-3,3h-2l-3,7-7,2v4l2,2-4,1,5,7-1,1,3,1,2,6-2,1v3l-4,5,1,2h2l1,3-4,2-2,6,1,2-8,2,4,3,2,4,8,3,1,4-14,3-1,2,2,6,15,2,2,4v6h6l3,2h14l5,2,2,3,4-2,3,3h3l2-5-3-2,1-8h3l1-9,4,4,6,1,1,4,1-3h4v-4l5-8v-7l2-1-1-1,4-7,7-8v-2l-6-1-1-2,3-6,4-1-1-1,3-3,1-7-3-4,4-6v-4l-3-5,1-1-4-2,1-3-4,1,1-1-3-3-1,1-1-2-5-2-1-4-2-1Z" /><path d="M646.5,386.5l-7-2-6,7-3-3h-18l-1,3-7-4v5l-2-1v-2l-1,1v-4l-6-2,1-1-4,1,1-1-2-2v-4l-5,1-1-4-2-1h-6l-2,4-7-2-3,1-2,1-1,4,12,10-1,5,3,7,3,2,1,6-5,6-3,8-5,5-10,1-5,4h-10l-11,8h-13l2,5,5,2,3,5h15l2-4,3,2,3,7,2,1,7-2,6-4,2,3,3,14,19,9,15,3,10-1,2-17,2-2v-4l3-3-3-9,5-2h-5l1-3v2l1-2,1,2h-2,2v-4l-3-1,2-1,4,6-4-5,1-1-4-10,1-5,4-1-3-1,3-1v2l2-6,11-14,6-13,4-4Z" /><path d="M581.5,235.5l-2-1-6,2v-2l-2,1-2-3-8-2v3h-2l1,1-3,3v-2l-9-3h-6v7l3,2h-3v4l-2,2-3-5-2-10h-5l-1,5-9,1v3l-2,2-2-1v10l3,7-2,1,3,2,8,19h3l1,4,4,2-1,1,3,3h-2l-1,3,2,1,1,6,5,1v2l1-1,1,2,1-4,1,2,2-1-1,3,3,2,3-2-1,3,6,2h3v-2h2l7,3,8-5h3l4,3v-5l2-1h-2l-3-4,2-1-1-7-1,2-1-2v2l-3-5,1-2,2,1,3-2v-10h-2v-5l-3-1v-7h2v-2h-2l2-5-3-5v-14h2v-1Z" /><path d="M469.5,367.5l-6,3-3,4-3-2-4,5-5-3-2,2,6,6-1,3h-2l3,7h2l-5,7,3,2,1-1,2,2,4-3h-2v-2l2,1,1-2v2l9,4-1,1,4-2,1-7,1,3,4,1-1,2h6l-2,2,2,1h2l1-2h12v2h7v2l3,2v-3l6,3v-5l1,3h2l1-2,6,2v-3l13,2v-4h2v-2l1,10h5l2,2-1,3h6l3,3v5l2-2,1,3,4-5,12,4,1-4,5-6-1-6-3-2-3-7,1-5-5-5-6-3v-6l-4-2v-4l-3,2-2-1-3,3-14-1v2l-6-3-3,3h-2l-3-3-2,3-1-2-3,4-4-4h-3l-1,2,3,2-1,2h-5v-5l-7-4-3,3-7-3-3,2-4-2-11,1-2-5Z" /><path d="M347.5,60.5l-6,1v-3l-4-7,1-1h-4v-2l-2,1-6-3v-5l-3-5h-2l-2-3-5,3-5-3-8,7-1-2-1,2-6,1-2-2h-7v-2l-5-1-2-3-11,5-3-6h-12l-2-2h-4l-3-2-3,5,3,4h2l2,4h2l2,5-5,2-1,4-6,2-2,3-5-3-6,1v-2h-4l-2,2,1,6h8l3,4-4,4,1,1-4,1v5h-2v4h-3l-6-8-7,6v8h-7l2,3-2,3,5,1,1,2,1-3h7l3-3,3,4,2-1,7,3,1-1,1,3,7,1,3,2,8-1,1-3,6,5-1,2,2,2,9-2v-4l4,2,5-2,4,1,7-8,1-7h8l5-9,4,1,2-4,13,5,5-2,2,4,5-4,6,1,2-3h9v-2l2,1,6-4-8-7v-2Z" /><path d="M236.5,397.5l-4-2,1-2-7-4-2-3h-8v-2l-5,1-4-2v-2l-5-1v-5h-4l-1-2,2-1-3-1-2-3,1-4-2-7,2-1v-3h-3l-4-5-11-7-12,15,2,1-2,1v7l-5,8v4h-3l-2,3-1-4-6-1-4-4-1,9h-3l-1,8,3,2-2,5h-3l-3-3-4,1,1,6,9,9,3-1,5-16,3-1,2-4h4l3-3h4l10,9h4l3,2,4,4v2l-5,2-9-3-2,8h-6l-1,4,3,2v4l5,7,9,3v7l5,1,4,6,9,5h2l4-6,7,1,1-8h-2v-4h2l1-6h4v-5l3-1-4-3h2v-6l4-1-1-3h3v-2l-2-1,5-1,2,2,2-2,3,1,3-2v-2Z" /><path d="M239.5,33.5l-9-3-2-4h-4v-4l-3-3h-5v-2l-3,3h-2v5l-3,4-5,2-6-3-1,1,2,1,1,3-5,3-3,4-6,2,1,6-5,1-2,4-10,2-5-4-2,1-2,6h-5l-3-3v4l-4,1v3l-3,1v4l-2,1-1,5,6,4v3l3,2-1,1,4,2,1,7,13,1v2l3,1-1,1,4,6,3-5,8-5h8l3,1,2,4,3,2,1-2,4,2,4-2-1-1,2-2v-3l-5-1v3l-2-2-5-1,2-4-2-2h7v-8l7-6,5,5,1,3h3v-4h2v-5l4-1v-4l3-1-3-3h-3l-1-2-4,1v-6l2-3,3,1v2l6-1,5,3,2-3,6-2,1-4,5-2-2-5h-2l-2-4h-2l-3-4Z" /><path d="M347.5,238.5h-3l-1-3-15,3-2-2,1-10-3-4h2l1-2-1-3-3,1-1,2-4-2-5,3v-2l-6-1-3,3-5-1-1-3-2,1v2l-3-1,2,2-5,2v5l2,1v2l-7,2-4,5-2-2v7l-2,4-2-4h-7l-3,3,2,6-2-1-2,4-2-1-5,2v2l3,2-3,6-2-1-1,3-5-1v3h2l2,3h-4l-2,6,2,1-2,2,3,1,1,2-2,9,4,7,14-5,1,2,3-2,12,3,10-1,1-3,3,1v-2l5-3v2l9-3,2,1v2l2-3h12l1-12-3-10,1-2h2v-2l2,2,5-4-4-3-2-6h4l1-4h5l-1-3h4l1-3,6-2-1-3Z" /><path d="M33.5,230.5l-4,1-1,2-10-6v2l-3,3-5-2-2,1-1-2-7,4v2l6,7v5l5,3h3l5,9,4-3v5l6,4v4l2-1,1,5h6v-4l3,1-3,21,2-1,2,6-4,4v2l7,1,1,2-2,2,5,1v3h2l5,8,3-1,3,3h3l1-3h2l2,5-1,1,2,2,4,2,5-1,1,2,1-1,8,5,4-5v-3l2-1-2-2v-4l-3-1,1-1-5-7,4-1-2-2v-4l7-1,3-7,5-4,6,6,5,1,5-1-1-2,4-1,2,6,6,1,3-3-3-7,3,3,3-4,1,1,2-3v2l3-2,5,4,4-8h8v-2l3-1v-4l3-1,3-5-1-2h-5l1-4h-2l-1-2-2,1-2-3,3-7-6-3h-3v3l-3,1-1,4h-2l-4-4-1,1-6-4-6-1v-2l-5,1v2l-3,1h-3l-2-2-1,5h-3l1-3-3-4-3,7-2,1-1-3h-2l1-3-9-4,1-2-2-5-4,3-1-1-1,2,2,1-5,2-1,3h-2l1-2-6-2-1,3h-2v2l-5-3-3,2-4-2v-4h-10l-1-4-7-2-8-7h-1Z" /><path d="M580.5,157.5l-3-1-4,2-2-1v-2l-4-1-1,1,2,4-3,1-4-6-4,1v-10h-2l2,9v-2h-2l-4-6h-2l-5-5-1,3,2,6-3,2-5-4v3l-3,1v2l-2,1h-3l-1-3-3-1-4,4-2-3-2,2v-2l-2,2-1-2-2,2,3,5v9l1-1,7,5-3,2,2,2-3,3,7,12,8,21-2,1,2,4-1,4,1,2h2v7h-2l4,7-1,5,3,5,2-2v-4h3l-2-2-2-7,1-1,1,2h11l3,2v2l4-4v-3l6,1,4,4,2-1v2l5-2,3,1,1-2v-7h-2v-5l3-1-1-3h3v-2l1,1-1-1,3-2-3-1h2l-2-2h2l-1-2h2v-4l1,1-1-1,3-2v-4l-3-6v-7h2l-1-1,2-2v-5l-1-3h-2v-3l-3-2,1-4-6-6v-2Z" /><path d="M315.5,291.5l-1-1-2,3v-2h-7l-4,2v-2l-5,3v2l-3-1-1,3-7,1-15-3-3,2-1-2-5,1-2,2-5,1-1,4-6-1-2,4,2,6-1,3,2,2,2-2,3,2,9-2,3,3-3,6,4,12-4,2,2,6-4,1,2,4-4,2v14l4,5-3,4,2,15,2-1,3,3,3-1-2,2,2,4,1-1,1,5h8v2l3,2,5-7,9,1v-5l4,4-1-12-2-3-1-7h3l2-10h3l1-3,4,5,3-5h-2l3-4-1-5,2-2-2-1,3-4-3-1,2-2-1-3,2-2-2-4,2-1-4-5,2-6-2-8,3,1-2-10,4-6-2-2,2-2-1-5Z" /><path d="M246.5,316.5l-10,5-6-4-5,4h-6l-1,2-9-1-1,2-5,2-4-2-1,3h-2l3-3-2-1-5,2v-2l-3-1-1,2-8,1-4,3,1,1-4,1-3,6,1,2,6,1v2l4,4,1-1,6,4,3,5h4v3l-2,1,2,7-1,4,2,3,3,1-2,1,1,2h4v5l4,1,1,2,6,3v-2h3v2h8l5,5h2l-1,1,3,1-1,2,4,2,10-5,2,3h7v-12l1-2,4,2-1-8,3-4-3-5-1-14,4-2-2-4,4-1-2-6,4-2-4-12,3-6-3-3-6,2-6-2-2,2-2-2Z" /><path d="M247.5,303.5l-2-5-3-3h-2l-1-4-1,2-2-3-2,1-1-5-3,1v-2l3-3-3-2v-8l-4-8,1-4-2-1,1-3h2l-6-2-2-11-4,1-6-2-2-4,1-2-2-1v-3h3v-4l-9-5-2-3,1-3-3-5h-9l-4-2-5,3-2,9h-15l-1,3,2,6-1,3-3,2,2,10-7,1v2l6,4-4,7,3,3,2-1,3,2v5l4-1,1,2-3,5-3,1v4l-3,1,3,6h2l4,4,1-1,3,3-1,1,4-1-1,3,4,2-1,1,3,9-4,6,3,7-1,4,4,1,2-2h3l1-2,3,1v2l5-2,2,1-3,3h2l1-3,4,2,5-1,1-3,9,1,1-2h6l3-3h4l4,3,10-5,1-3-2-6,2-2v-2Z" /><path d="M188.5,186.5l-3-1-1,3h-2l-3,3v4l-2,1h2v4l3,1-3,2v2l9,7h9l3,5-1,3,6,5h3l2,3v3l-3,1v3l2,1-1,2,2,3,6,3,4-1,2,11,6,1-2,1-1,3,2,1-1,4,4,7v9l3,1-3,6,3-1,1,5,2-1,2,3,1-2,1,4h2l3,3,2,5,6,1,1-4-2,1-4-7v-3l2-1v-5l-1-2-3-1,2-2-2-1,2-6h4l-2-3h-2v-2h5l1-3,2,1v-3l3-3-3-2v-2l5-2,2,1,2-4,2,1-2-6,3-3h7l2,4v-2l2-1v-8l2,2,4-5,7-2v-2l-2-1v-5l5-2-5-4-2,1-1-6-5-1-4-3,1-1h-3l3-4v-5l-3,3-12-4-8,2-2-1-2,3h-2l3,2-2,1-4-1-1-5,2-2-3-3-1,2-1-2-2,2-2-2h-3v-3h-13v2l-3,3h-3l-1-3h-3l-1,3-6,2,1-2-4-2-1-5-5-1-5,2-4-2v-1Z" /><path d="M265.5,103.5h-6l-3,2-2-2,1-2-6-5-1,3-8,1-2-2-8-1-1-3-1,1-7-3-1,1-4-4-2,3h-3v4l-2,2,1,1-4,2-4-2-1,2-3-2-2-4-5-1-3,2-3-2-8,5-2,4-3,1-1,3h-2l1,4-5,8,1,2h2l2,5,1-1-5,3,6,5,7,1,1,3,8,5,2-2,3,2,1-1-1,1,2,1v4l6,3,2-1v2l2-1v2l3-2v4l2,2,4-4h2-2l3,2v-2l2-1-2-3,2-1,1-3,3,6,5-1,1-3,2-1-1-3h3l-1-1,4-1,1-4h2l-5-6h5v-7l5-3,3,2,2-2,1-5,2-2,1,2,3-3,2,1,1-4,3,3v-5l3-3v-1Z" /><path d="M574.5,421.5l-12-4-4,5-1-3-2,2v-5l-9-3,1-3-2-2h-5v-10l-1,2h-2v4h-10l-3-2v3h-4l-2-2-1,2h-2l-1-3v5l-6-3v3l-3-2v-2h-7v-2h-9l-6,2-2-1,2-2-3-1v2l-3-1,1-2h-4l-1-4-1,6h-2l-1,3-6-5h-3v-2l-1,2-2-1v2h2l-8,6,1,4h5v2h-3v2l-6,2,1,1-6-2h3l1,4h2l-6,4,2,1-2,2,3,4,5,4h3l1,2-1,2,2,4-5,4,1,7,5,1,23-5,11-5h40l11-8h10l5-4,10-1,5-5,2-4Z" /><path d="M384.5,236.5v-2h-3l-6-6-5,1v-2l-1,5-5-3-4,3-4-1-2,2-3-2-4,4,1,6-6,2-1,3h-4l1,2-5,1-1,4h-4l2,6,4,3-5,4-2-2v2h-2l-1,2,3,10v11l11-1v2l8,1,12-1,6,8h4v4l3,4h-2v2h3l2,5,6-2,1-4,7-4,7,1,2-4h4l3,3,5-1,3,4-1,1,3,1,4-10,6,1,3,3,2-1,3-6-4-5,1-2-3-1v-2l-5-1,1-4-8-2-2-2v-3l-7-2-6,2,2-1-2-3-7-5v-3l6-3-8,1,2-3-2-3v-4l3-5-1-3-5,1-3-3v-3Z" /><path d="M386.5,408.5l-1-3-1,2v-2l-4-3-2,2-1,5h-2l-6,6-4-6-10,6-4-1-4,3h-6l-4,2,2,4-2,3,1,6-3,5,5,10-11,3,1,2-9,3v5h2l2,6h2l-2,2,5,4v2l-3,1h6l-2,1,1,2-5,1,1,1-4,2,2,1-1,2,3,3,22-4,8,5,5-2,6,2,10,6,9-3,4,1,9-6v-2h-2v-10h-2v-3h-2v-6l-2-1v-3h3l-2-4,1-6,2-1-2-1,2-1-1-1,3-4v2l2,1v-3l2,2-2-6,1,1-3-2v-5l2-3h2l-4-6-1,3-2-2v-3l-8,1-3-2,1-5-2,1-2-3,5-7h-1Z" /><path d="M384.5,306.5l-3,1-1,4-6,2,1,3-2,1,1,2-3,5,1,5-3,1v4l-3,2-2-5-2-2-1,1v11l1-1,2,3h-3l-2,2,5,4,1,3-2,2-1,7,3,2-1,7,2,5-3,8,5,2-5,3,3,3-2,1h2l3,6,3,1-3,4,2,8-4,2,2,2,6-6h2l1-5,2-2,4,3-1,2,2-2,1,3,2-3-2-1,4-4,4,1,4-2,3,2h7l2-2,2,1v2l1-2,2,1v-2l8-6v-2l-3-2,3-1-2-2,2-1-2-4-2,4-1-4,2-4h-2v-4l-3-3-3,2-4-1,1-5,3-3-3-4-8-1v-14l-3-1-3-6-3-2v-2h-3l2-9-6-6v-11l-1-1Z" /><path d="M309.5,368.5l-4-5-1,3h-3l-1,8-4,2,1,7,2,3,1,12-3-4-1,5-9-1-5,7-6-5-5,1-1,2h-2l1,1-2,3,3,1-2,1v5l1-2,5,2-1,3h6v3l3,2,2,6,9,4v17h-3l-1,6,7,1v3l-3,1v2l2,1-2,8-2-1-1,6h-2l-4,11,6,2,12-2,5-4,7-2,7,1,4,3,1-2-2-1h2l2-2-1-1,5-1-1-2,2-1h-6l3-1v-2l-5-4,2-1-2-1-2-6h-2l-1-3,1-2,9-3-1-2,11-3-5-10,3-5-1-6,2-3-2-4,4-1v-2l-10-1,2-6-3-1,1-10-4-14,3-2-4-2-3,1-4-5,1-3-4-9-6,8-3-2,2-2Z" /><path d="M260.5,383.5l-4-2-1,2v12h-7l-2-3-6,2-1,3-2-1-1,3-3,2h-12l2,3h-3l1,3-4,1v2l2,1-2,3h-2l4,2-1,2h-2v5h-4l-1,6h-2v4h2v8l-8-1-4,6,5,1,2,3-3,5-9,2-3,10v3l2,2,13,5,6-1,10-5h11l15,7,11-1,7,4,15,4,2,2,5-11h2l1-6,2,1,2-8-2-1v-2l3-1v-3l-7-1,1-6h3v-17l-9-4v-3l-5-5,1-1-2-2h-5l1-3-5-2-1,2-1-2,3-4-3-1,2-3-1-1h2l1-2-1-5-1,1-2-4,2-2-3,1-3-3-2,1-1-5v-2Z" /><path d="M416.5,400.5h-3l-1,2v-2l-2-1-2,2-5-1-2,2-5-3-2,2-4-1-1,2h-2l-2,9-3,4,2,3,2-1-1,5,3,2,7-1,2,1-1,2,2,2,1-3,4,6h-2l-2,3v5l3,1-1,3h2v3l-2-2v3l-2-1v-2l-3,3,1,1-2,2,2,1-2,1-1,4,2,6h-3v3l2,1v6h2v3h2v10l2-1-1,3,4,1,11-9,5-8,8-5,4-7,6-1,7-3,1-2,6-1-1-7,5-4-2-8h-3v-2l-8-5-3,3-1-1-1,3-1-1-2,2-10-7-3,3,2-4-2-2-1,1-2-2h-3l-2-5h-2l3-3-2-1v-4l1-1,3,3,1-8-2-2Z" /><path d="M432.5,400.5h-3l-6,4v4l3,2-4,1v2l3,1,3,4,2-1,5,5,2-1-2-3,1-2,4-1,1-3-5-2,2-3-6-2v-5Z" /><path d="M446.5,376.5l-3,1v3l-5-3-4,1-2-2v4l-3-2-1,3-5-3-1,2-1-2,2,6-2,2,2,1-2,2-1-1,3,3v2l-8,6,3,3v5l-1,3-3-3-1,1v4l2,1-3,2,2,1,2,5h3l5,3-2,4,3-3,10,7,2-2,1,1,1-3,1,1,5-6-2-1,6-4h-2l-1-4h-3l3-1,3,4-1-2,6-2v-2h3l1-2h-6l-1-4,4-3-6-3,3-2,2-4-2-1-3-6,3-4-2-1-4-5ZM432.5,400.5v5l6,2-2,3,4,2v2l-4,1-1,3,2,3-2,1-3-4h-4l-3-4-3-1v-2l4-1-3-2v-4h2l4-4h3Z" /><path d="M432.5,32.5h-14v2l-6-1-5,4-10-1-24,4-6,2v4l-2,1-2,6-4,2v3l-12,2v2l8,7-6,4-2-1v2l7,4,1,4,3,1-3,4v4h2l-3,2,1,1-3-2-2,2,3,4h2l1,8-4,2,4,3-3,5,2,2v5l2,3,4,2,2-3,2,3,6,1,2-8,9-1,8,11h5l1-2,2,1,1-4,3-2-1-2,3-1v-5l6-5-4-6,6,1,5,5,6-3,6,2,9-4,6,3,11-6,7,7,3-3,1,1v-2l-5-5,1-1-2-3h6l3,2v2l5-1-2-4h4l-2-4v-3h2-8v-3l-3-2,4-1-2-2-1-5h-2l1-3-1-3-3-2-3-6,1-1-4-3-1,1,1-5-3,1-4-4-2-5-3-2,1-1-3-2-2,2-1-3-4-2-2-4,1-1-1-1Z" /><path d="M462.5,110.5l-7-7-10,4-1,2-6-3-9,4-6-2-4,1-1,2-6-5-5-1,3,6-6,5v5l-3,1,1,2-3,2v4l6,2,4,8v3l2-1,3,6-5-1-2,5,1,3-2,2h3v13l6,7,3-1-2-4,9,1,3-3,2,6,2,1,3-1,1,2,8-6-1,1,3,3,6,1,3-1v-2l2-1,8,1,7-4,2-6h5l-1,3,2-2v3l3,2,3-3-1-3,6-6-1,3,4,2v4l6-3h6l1,3h2v2l1-2h2v-2l3-2-3-9,1-4-6-5,4-2v-2l4,1,1-4-5-3-1-4h-7l-3,3v2l-2-1-1-4-2,4-4,1-1-2-1,1v-2l-3,2-6-6-2,1-4-2-3,2-2-2,1-8-4-5-4-5Z" /><path d="M580.5,157.5l2-1-2-2,1-2-3-6,1-4-5-4,1-1,1,1-7-3-1-3-1,1-8-7h2l-1-2h-4l2-3-1-4-1,1,1-2-3-1v-6l-2-2-3,1-1-2-3,1-1-3h-2l2-1-2-4h-2v-10l-2-3-4,1-3-3,2-2-2,1,1-2-3-1,1-4-3-1-4,2h-6v5l-3,1h-3l-1-2-1,1-3-2-3,4,1,5-2-1-1,4-2-6-2-1-8,1-4-2-5,1-3-2-1,3,2,2-4,1,2,6-4,1,2,4-5,1v-2l-9-2,2,6,3,3,1-1v3l-1-1-3,3,8,10-1,8,2,2,3-2,4,2,2-1,4,3,1,3,4-2v2l1-1,1,2,4-1,1-4,4,5v-2l3-3h7l1,4,5,3v3h-5v2l-4,2,6,5-1,1,3,3,4-2,2,3,4-4h3l1,3,3,1,2-3h3v-3h2l1,3,2-1-1,1,4-2-2-5,1-4,5,5h2v2l4,4h2v2l-2-9h2v10l2,1,2-2,4,6,3-1-2-4,1-1,4,1v2l2,1,4-2,3,1Z" /><path d="M374.5,313.5l-2-5h-3v-2h2l-3-4v-4h-3l-7-8-12,1-8-1v-2h-8l-4,2-3-1-8,2,1,5-2,2,2,2-4,6,2,10-3-1v3h2l-2,10,4,6v5l-1,2-1-1,1,4-2,2,3,1-3,4,2,1-3,6,2,1-3,4h2l-5,7,5,1,3-7,5,14,3,3,3-1,4,2-3,2,1,6,2,1-1,5,2,2-1,10,3,1-2,4,1,2,15,2,4-3h6l8-5,2,4,4-2-2-8,3-4-6-7h-2l2-1h-2l-1-3,5-3-5-2,3-8-2-5,1-7-3-2,1-7,2-1-1-4-3-1-2-3,5-2-2-3-1,1,1-12,4,7,3-2v-4l3-1-1-5,3-5-1-2,2-1-1-3Z" /><path d="M429.5,299.5v2l-2,1-3-3-6-1-4,10-3-1,1-1-3-4-5,1-3-3h-4l-2,4-7-1-4,2,2,5-1,8,6,6-3,5,2,2-1,2h3v2l3,2v3l6,4v14l8,1v2l3,2-2,1-2,7,4,1,2-2,4,3v3l2,1-2,3,1,4,2-3,1,1-1,1v-5l1,2,1-2,1,2,4,1,1-3,3,2v-4l2,2,4-1,5,3,1-4,4-2,5,3,4-5,3,2,9-7-6-8,6-2h-2l-1-4-6-2-1-5-2-2v-5l2-1-1-7-6,5h-2l1-6-2-1-3,2-5-3v-3l-3-2,3-3-6-7,2-3-2-1v-5l-4-2-2-3Z" /><path d="M530.5,311.5l-2,2-5,1-5-3-1-3,2-1v-2h-2l-1,2h-2l-1-2-7,4v-2l4-4-8,2-4-3-1-5-11,1-2-3h-4l-6-7-4-2h-5l-5-5-3-6v-5l-4-2-1,7-3,5v6l-2,3-1-1-1,2-2-1v-2l-5,1-1,6-2-3-6,8,2,3,4,2v5l2,1-2,3,6,7-3,3,3,2,2,6,6-2,2,1-1,6h2l6-5,1,7-2,1,3,12,6,2,1,4h2l-6,2,1,3,1-1,2,4,1-1,3,8,11-1,2,2,7-1,5,2,3-3,7,4v5h5l1-2-3-2,1-2,4-1-2-1h2v-6l5-14-2,1v-4h-4l1-6h-3l-2-8-3,1v2l-3-2,8-10,8,5,5-1-2-5,1-2-2-1,4,2,2-2-1-4,5-5-1-2Z" /><path d="M574.5,310.5l-10-2h-2v2h-3l-6-2,1-3-3,2-3-2,1-3-2,1v-2l-2,4-4-4-11,8,1,4-5,5,1,4-2,2-4-2,2,1-1,2,2,5-5,1-8-5-5,5-3,5,3,3v-3l3-1,2,8h3l-1,6h4v4l2-1-5,15v5h-2l5,6,3-4,1,2,2-3,3,3h2l3-3,4,3h2v-2l14,2,3-4,2,1,1-2h2v4l4,2,5-2,7,2,2-2,2-8,3-3v-22h3l2-4-8-5,3-5-1-3-4,1-6-4,3-6v-6Z" /><path d="M646.5,386.5l7-8,5-3,29-4,1-2,3-1-4,6-5,1,1,1,4-2,5-7v-2l-1,2-1-2h2l3-24,4-6-5,1-1-2v-5l3,1v-7l-6-12-12-5-8-1-27,13-1,4h-3l-6-5-3,1,1,2-3,3,2,3-5,3-12-3-15-7-7-15h-5v5l-4-3-6,2-2,2v6l-3,6,6,4,4-1,1,3-3,5,8,5-2,4h-3v21l-5,10,8,1,1,4,4-1,3,6-1,1,3-1,6,3-1,2,3,4,2-2-1-2h3l4,3,1-3,4,1,6-2,5,2,3-1v2l3,1,6-6h4l3,1Z" /><path d="M174.5,104.5l-4-6,1-1-3-3-13-1-1-7-4-2,1-1-1-2h-2v-3l-5-4h-5l-5,6,1,1-4,2-1,4,2,8-2,3-5,1-4,11-3,3,1,6-3,2-2,7-4,1-1,3-5,3,3,5-2,3,1,1h-2l-1,3h-3v8l-6,2v4l-3,4,4,3v2l-3,3h-5l1,2h2l-2,2,5-1v2h2l1,5h2v-6l6-2,10,2,6-3,3,2-2,3,5,2h3l3-4,2,2,1-1,1,3h2v2h4l-1,3,3,6h10l-1,4h2v3l6,6h16l6-4-3-1v-4h-2l2-1v-4l3-3h2l1-3h4v-7l-2,1-2-2-4-12-5-4,6-2,2-7,2-2-8-5,4-7-2-1-1-3-7-1-6-5,5-3-1,1-5-7,5-7-1-5h2l1-3h2Z" /><path d="M278.5,100.5l-4-1-5,2-2-3-2,1-1,7h-2v6l-3-2-1,3-2-1-3,3-1-2-5,9-2-2-6,3v7h-5l5,6h-2l-1,4-6,2,1,3-5,4-3,1-1-4-3-2-2,4,2,3-2,1v2l-3-2h2-2l-4,4-2-2v-4l-3,2v-2l-2,1v-2l-2,1-4-2-2-5-2-1,1-1-1,1-3-2-1,2-7-4-4,7,5,4h3l-4,10-6,2,5,4,4,12,4,1-1,8,4,3,5-2,5,1,1,5,6,4,1-2h2l1-3h3l1,3h3l4-3-1-2h13v3h3l2,2,1-2,2,2,1-2,3,3-2,2,1,5,3,1,3-1-3-2h2l2-3h16l6,3-3-5v-3h2l-2-2,3-2,2,1,2-2-1-1,3-5-3-1-1-2,1-2,5-1,1-4-3-3,1-2h3l-1-3,5-2v-4l3-4-3-8-2,1v-2h2l-3-2-3,1v-8l2-4-2-6-5-1v-2l-1,1-1-2h2l-1-2-5,2-3-10,1-5,2-2,4,2,2-2-1-2v-3Z" /><path d="M369.5,129.5l-4-1-2-3-2,3-6-4-4,4-4-2-2,3h-6l-9,15v3l2,2h-7l-2-4h-3l-2,4h-2v7h-3l-3,3,1,4h-3l-2,4-5-2-2,2-6-3v-2l-2-1-6,3,1,3h-3l-1,2,3,3-1,4-5,1-1,2,1,2,3,1-2,5-2,3-2-1-3,2,2,2h-2l1,5,2,2,3-2v5l-3,3,3,1-1,1,4,3h5l1,7h4l3,2,3-3,1,2,5,2,3-3,6,1v2l6-3,2,2,5-3,1,3-1,2h-2l3,4-1,10,2,2,12-3h3l1,3h3v-3l4-4,3,2,2-2,4,1,3-3-3-2-2-5-13-2v-2l-5-4,1-2-2-2,5-5,3,2,2-1-3-3,4-6h2l-3-4,7-7,8-3v-4h2l1,2,1-6h3l1-2-3-4v-2h3l2-3-3-4,1-2-3-1,2-7-2-1,3-7-2-6-3-3,2-4Z" /><path d="M399.5,130.5l-3-1-1,2h-5l-1-3-7-7h-9l-2,8h-2l-2,4,5,8-3,8,2,1-2,7,3,1-1,2,3,4-2,3h-3l3,6-5,5v3l-1-2h-2v4l-8,3-7,7,3,3-6,6,3,4-2,1-3-2-5,5,2,1-1,3,5,4v2l13,2,2,5,9,5,1-5v2l5-1,3,4,6,2v2l2-5,2-1v-3l14-10,2,1,5,10,5,6,9-2,3,1,1-2,5-2,5,1,6-7v-6l3-6h-4l-2,3h-2l-3-2,2-6-8-2-1-2-4,1-1-3h2l1-4,3-1,1-3-7-11,1-3,2,1-4-5,1-2h-6l-1,2,2,2-2,1-7-6,1-10-2-3,1-1h-3l2-2-1-3,2-4h5l-2-5h-3v-3l-4-8-6-2Z" /><path d="M443.5,220.5v3l-6,7-5-1-5,2-1,2-12,1-5-5-7-12-14,10v3l-4,6v3l3,3,5-1,1,3-3,5v4l2,3-2,3,8-1-3,1-1,2-1-1-1,4,6,3v2l3,3-2,1h2l1-2,7,1,3,1v4l10,3-1,4,5,1-1,2h4l-1,3,4,5-1,3,4-7,2,3,1-6,5-2v3h4l2-3v-6l2-2-1-1,2-2v-19l1-5,4-3v-5l-2-6-3-2,1-3h-4v-10l-3-1-3-1Z" /><path d="M534.5,230.5l-7-3-3,4v-2l-3-1v-3l-4,1,1,2-6-1v2l-1-1-4,3,1,4h-3l1,2-9-2-3,1-1,5-4-4-5,2-6-3-6,2-1,3-5,4-6-3-2,1-2,4,1,1-4,3-1,15,5,4v5l3,6,3,4,11,3,3,5h2l1,2h4l2,3h4l1-2h6l1,6,4,3,8-2-4,3v3h2l4-4,2,2,5-2v2l-2,1,1,3,7,3,5-3v-2l10-8-2-1-1-5-2-1,1-3h2l-3-3,1-1-4-2-1-4h-3l-8-18-3-2,2-2-4-13,1-4,2,1,1-5,10-1v-4h5v-3Z" /></g></svg>