<svg viewBox="0 0 124 73" xmlns="http://www.w3.org/2000/svg"><path d="m119.973 73h-115.946c-3.815 0-5.087-2.76-2.755-6.155l11.446-16.552c1.484-1.91 4.663-3.608 7.419-3.608h83.726c2.756 0 6.147 1.486 7.419 3.608l11.446 16.552c2.332 3.396 1.06 6.154-2.755 6.154z" fill="#fecc3d"/><path d="m119.973 73h-115.946c-3.815 0-5.087-2.76-2.755-6.155l11.446-16.552c1.484-1.91 4.663-3.608 7.419-3.608h83.726c2.756 0 6.147 1.486 7.419 3.608l11.446 16.552c2.332 3.396 1.06 6.154-2.755 6.154z" fill="#fc0"/><path d="m84.999 55.387h-45.997c-3.18 0-5.935.636-6.359 1.485l-.636 1.698c-.424.849 2.12 1.697 5.511 1.697h48.964c3.392 0 5.724-.848 5.511-1.697l-.847-1.486c-.212-.848-3.18-1.697-6.147-1.697z" fill="#355168"/><path d="m30.735 30.77 16.535 29.285 51.93-30.77-16.533-29.285z" fill="#e8e8e8"/><path d="m44.514 32.892 2.967-1.697 4.875 4.88 3.392 3.396-1.272-4.457-1.908-6.578 2.756-1.698 3.603 14.43-3.391 1.91zm14.625-.422c-2.332-4.032-1.484-7.64 1.907-9.55 3.392-1.91 6.995-1.061 9.327 2.971s1.484 7.64-1.696 9.762c-3.391 1.697-6.995.636-9.538-3.184zm8.267-5.094c-1.484-2.334-3.392-3.183-5.088-2.334-1.695.849-1.907 2.971-.424 5.518 1.484 2.546 3.392 3.395 5.088 2.334 1.907-.849 1.907-2.971.424-5.518zm5.087-7.852-3.391 1.91-1.484-2.335 9.539-5.517 1.271 2.334-3.391 1.91 5.935 9.974-2.755 1.698z" fill="#352245"/></svg>